<?xml version="1.0" standalone="no"?>
<!DOCTYPE svg PUBLIC "-//W3C//DTD SVG 20010904//EN"
 "http://www.w3.org/TR/2001/REC-SVG-20010904/DTD/svg10.dtd">
<svg version="1.0" xmlns="http://www.w3.org/2000/svg"
 width="325.000000pt" height="325.000000pt" viewBox="0 0 325.000000 325.000000"
 preserveAspectRatio="xMidYMid meet">
<metadata>
Created by potrace 1.14, written by Peter Selinger 2001-2017
</metadata>
<g transform="translate(0.000000,325.000000) scale(0.100000,-0.100000)"
fill="#000000" stroke="none">
<path d="M633 3009 c-27 -39 -52 -78 -58 -87 -5 -10 -25 -36 -42 -59 -18 -23
-33 -45 -33 -50 0 -4 -16 -28 -35 -52 -19 -24 -35 -47 -35 -51 0 -4 -16 -27
-35 -51 -19 -24 -35 -48 -35 -52 0 -5 -15 -27 -32 -50 -18 -23 -37 -49 -43
-59 -5 -9 -32 -49 -60 -90 -27 -40 -51 -76 -53 -80 -2 -5 145 -8 326 -8 l330
0 11 33 c17 54 54 181 57 192 1 6 16 57 33 115 18 58 34 114 36 125 3 11 19
65 35 120 17 55 33 108 35 118 2 10 7 27 10 38 6 18 -1 19 -179 19 l-186 0
-47 -71z"/>
<path d="M1235 3068 c-2 -7 -9 -31 -16 -53 -6 -22 -16 -46 -22 -52 -5 -7 -7
-13 -4 -13 5 0 -22 -104 -66 -250 -54 -177 -107 -362 -107 -371 0 -5 256 -9
610 -9 375 0 610 4 610 9 0 6 -15 61 -34 123 -18 62 -52 178 -76 258 -23 80
-56 195 -75 255 l-32 110 -392 3 c-308 2 -392 0 -396 -10z"/>
<path d="M2214 3064 c6 -15 54 -180 132 -449 19 -66 41 -140 49 -165 8 -25 19
-64 25 -87 l11 -43 330 0 c182 0 329 3 327 8 -1 4 -25 40 -53 80 -27 41 -54
81 -60 90 -5 10 -25 36 -42 59 -18 23 -33 45 -33 50 0 4 -16 28 -35 52 -19 24
-35 47 -35 51 0 4 -16 27 -35 51 -19 24 -35 48 -35 52 0 5 -15 27 -32 50 -18
23 -37 49 -43 59 -5 9 -31 48 -58 87 l-47 71 -186 0 c-166 0 -185 -2 -180 -16z"/>
<path d="M192 2131 c33 -42 151 -200 163 -220 6 -9 24 -32 40 -52 34 -42 155
-203 170 -228 6 -9 24 -32 40 -52 34 -42 155 -203 170 -228 6 -9 24 -32 40
-52 34 -42 155 -203 170 -228 6 -9 24 -32 40 -52 33 -40 152 -199 175 -234 8
-13 25 -36 38 -52 13 -15 44 -55 69 -88 26 -33 44 -53 41 -45 -3 8 -121 363
-262 788 l-258 772 -330 0 -330 0 24 -29z"/>
<path d="M1034 2117 c38 -127 592 -1777 596 -1777 3 0 140 404 304 898 164
493 301 903 303 909 4 10 -128 12 -605 12 l-611 0 13 -42z"/>
<path d="M2175 1388 c-141 -424 -259 -778 -263 -787 -3 -9 15 11 41 44 25 33
56 73 69 88 13 16 30 39 38 52 23 35 142 194 175 234 17 20 35 43 40 52 15 25
136 186 170 228 17 20 35 43 40 52 15 25 136 186 170 228 17 20 35 43 40 52
15 25 136 186 170 228 17 20 35 43 40 52 12 20 130 178 163 220 l24 29 -330 0
-329 0 -258 -772z"/>
</g>
</svg>
