# Blender v2.76 (sub 0) OBJ File: ''
# www.blender.org
o Cube.006_Cube.009
v 8.000000 6.000000 1.050000
v 8.000000 8.000000 1.050000
v 7.000000 6.000000 1.050000
v 7.000000 8.000000 1.050000
v 8.000000 6.000000 -1.050000
v 8.000000 8.000000 -1.050000
v 7.000000 6.000000 -1.050000
v 7.000000 8.000000 -1.050000
vn 0.000000 0.000000 1.000000
vn -1.000000 0.000000 0.000000
vn 0.000000 0.000000 -1.000000
vn 1.000000 0.000000 0.000000
vn 0.000000 -1.000000 0.000000
vn 0.000000 1.000000 0.000000
s off
f 4//1 3//1 1//1
f 8//2 7//2 3//2
f 6//3 5//3 7//3
f 2//4 1//4 5//4
f 3//5 7//5 5//5
f 8//6 4//6 2//6
f 2//1 4//1 1//1
f 4//2 8//2 3//2
f 8//3 6//3 7//3
f 6//4 2//4 5//4
f 1//5 3//5 5//5
f 6//6 8//6 2//6
o Cube.005_Cube.008
v 8.000000 0.000000 -1.000000
v 8.000000 8.000000 -1.000000
v 7.000000 0.000000 -1.000000
v 7.000000 8.000000 -1.000000
v 8.000000 0.000000 -7.000000
v 8.000000 8.000000 -7.000000
v 7.000000 0.000000 -7.000000
v 7.000000 8.000000 -7.000000
vn 0.000000 0.000000 1.000000
vn -1.000000 0.000000 0.000000
vn 0.000000 0.000000 -1.000000
vn 1.000000 0.000000 0.000000
vn 0.000000 -1.000000 0.000000
vn 0.000000 1.000000 0.000000
s off
f 12//7 11//7 9//7
f 16//8 15//8 11//8
f 14//9 13//9 15//9
f 10//10 9//10 13//10
f 11//11 15//11 13//11
f 16//12 12//12 10//12
f 10//7 12//7 9//7
f 12//8 16//8 11//8
f 16//9 14//9 15//9
f 14//10 10//10 13//10
f 9//11 11//11 13//11
f 14//12 16//12 10//12
o Cube.004_Cube.007
v 8.000000 0.000000 7.000000
v 8.000000 8.000000 7.000000
v 7.000000 0.000000 7.000000
v 7.000000 8.000000 7.000000
v 8.000000 0.000000 1.000000
v 8.000000 8.000000 1.000000
v 7.000000 0.000000 1.000000
v 7.000000 8.000000 1.000000
vn 0.000000 0.000000 1.000000
vn -1.000000 0.000000 0.000000
vn 0.000000 0.000000 -1.000000
vn 1.000000 0.000000 0.000000
vn 0.000000 -1.000000 0.000000
vn 0.000000 1.000000 0.000000
s off
f 20//13 19//13 17//13
f 24//14 23//14 19//14
f 22//15 21//15 23//15
f 18//16 17//16 21//16
f 19//17 23//17 21//17
f 24//18 20//18 18//18
f 18//13 20//13 17//13
f 20//14 24//14 19//14
f 24//15 22//15 23//15
f 22//16 18//16 21//16
f 17//17 19//17 21//17
f 22//18 24//18 18//18
o Cube.003_Cube.006
v -7.000000 0.000000 8.000000
v -7.000000 8.000000 8.000000
v -8.000000 0.000000 8.000000
v -8.000000 8.000000 8.000000
v -7.000000 0.000000 -8.000000
v -7.000000 8.000000 -8.000000
v -8.000000 0.000000 -8.000000
v -8.000000 8.000000 -8.000000
vn 0.000000 0.000000 1.000000
vn -1.000000 0.000000 0.000000
vn 0.000000 0.000000 -1.000000
vn 1.000000 0.000000 -0.000000
vn 0.000000 -1.000000 0.000000
vn 0.000000 1.000000 0.000000
s off
f 28//19 27//19 25//19
f 32//20 31//20 27//20
f 30//21 29//21 31//21
f 26//22 25//22 29//22
f 27//23 31//23 29//23
f 32//24 28//24 26//24
f 26//19 28//19 25//19
f 28//20 32//20 27//20
f 32//21 30//21 31//21
f 30//22 26//22 29//22
f 25//23 27//23 29//23
f 30//24 32//24 26//24
o Cube.002_Cube.005
v -8.000000 0.000000 -7.000000
v -8.000000 8.000000 -7.000000
v -8.000000 0.000000 -8.000000
v -8.000000 8.000000 -8.000000
v 8.000000 0.000000 -7.000000
v 8.000000 8.000000 -7.000000
v 8.000000 0.000000 -8.000000
v 8.000000 8.000000 -8.000000
vn -1.000000 0.000000 0.000000
vn 0.000000 0.000000 -1.000000
vn 1.000000 0.000000 0.000000
vn 0.000000 0.000000 1.000000
vn 0.000000 -1.000000 0.000000
vn 0.000000 1.000000 0.000000
s off
f 36//25 35//25 33//25
f 40//26 39//26 35//26
f 38//27 37//27 39//27
f 34//28 33//28 37//28
f 35//29 39//29 37//29
f 40//30 36//30 34//30
f 34//25 36//25 33//25
f 36//26 40//26 35//26
f 40//27 38//27 39//27
f 38//28 34//28 37//28
f 33//29 35//29 37//29
f 38//30 40//30 34//30
o Cube.001_Cube.004
v -8.000000 0.000000 8.000000
v -8.000000 8.000000 8.000000
v -8.000000 0.000000 7.000000
v -8.000000 8.000000 7.000000
v 8.000000 0.000000 8.000000
v 8.000000 8.000000 8.000000
v 8.000000 0.000000 7.000000
v 8.000000 8.000000 7.000000
vn -1.000000 0.000000 0.000000
vn 0.000000 0.000000 -1.000000
vn 1.000000 0.000000 0.000000
vn 0.000000 0.000000 1.000000
vn 0.000000 -1.000000 0.000000
vn 0.000000 1.000000 0.000000
s off
f 44//31 43//31 41//31
f 48//32 47//32 43//32
f 46//33 45//33 47//33
f 42//34 41//34 45//34
f 43//35 47//35 45//35
f 48//36 44//36 42//36
f 42//31 44//31 41//31
f 44//32 48//32 43//32
f 48//33 46//33 47//33
f 46//34 42//34 45//34
f 41//35 43//35 45//35
f 46//36 48//36 42//36
o Cube_Cube.003
v -7.980000 -0.003500 7.980000
v -7.980000 0.053500 7.980000
v -7.980000 -0.003500 -7.980000
v -7.980000 0.053500 -7.980000
v 7.980000 -0.003500 7.980000
v 7.980000 0.053500 7.980000
v 7.980000 -0.003500 -7.980000
v 7.980000 0.053500 -7.980000
vn -1.000000 0.000000 0.000000
vn 0.000000 0.000000 -1.000000
vn 1.000000 0.000000 0.000000
vn 0.000000 0.000000 1.000000
vn 0.000000 -1.000000 0.000000
vn 0.000000 1.000000 0.000000
s off
f 52//37 51//37 49//37
f 56//38 55//38 51//38
f 54//39 53//39 55//39
f 50//40 49//40 53//40
f 51//41 55//41 53//41
f 56//42 52//42 50//42
f 50//37 52//37 49//37
f 52//38 56//38 51//38
f 56//39 54//39 55//39
f 54//40 50//40 53//40
f 49//41 51//41 53//41
f 54//42 56//42 50//42
